HIERARCHY
ROOT RootJoint
{
    OFFSET   0.000000   0.000000   0.000000
    CHANNELS 6 Xposition Yposition Zposition Xrotation Yrotation Zrotation
    JOINT pelvis_lowerback
    {
        OFFSET   0.000000   0.093605   0.000000
        CHANNELS 3 Xrotation Yrotation Zrotation
        JOINT lowerback_torso
        {
            OFFSET   0.000000   0.100000   0.000000
            CHANNELS 3 Xrotation Yrotation Zrotation
            JOINT torso_head
            {
                OFFSET   0.000000   0.282350   0.000000
                CHANNELS 3 Xrotation Yrotation Zrotation
                End Site
                {
                    OFFSET   0.000000   0.192650   0.000000
                }
            }
            JOINT rTorso_Clavicle
            {
                OFFSET  -0.001000   0.157500   0.000000
                CHANNELS 3 Xrotation Yrotation Zrotation
                JOINT rShoulder
                {
                    OFFSET  -0.117647   0.000000   0.000000
                    CHANNELS 3 Xrotation Yrotation Zrotation
                    JOINT rElbow
                    {
                        OFFSET  -0.245000   0.000000   0.000000
                        CHANNELS 3 Xrotation Yrotation Zrotation
                        JOINT rWrist
                        {
                            OFFSET  -0.240000   0.000000   0.000000
                            CHANNELS 3 Xrotation Yrotation Zrotation
                            End Site
                            {
                                OFFSET  -0.116353  -0.002500   0.000000
                            }
                        }
                    }
                }
            }
            JOINT lTorso_Clavicle
            {
                OFFSET   0.001000   0.157500   0.000000
                CHANNELS 3 Xrotation Yrotation Zrotation
                JOINT lShoulder
                {
                    OFFSET   0.117647   0.000000   0.000000
                    CHANNELS 3 Xrotation Yrotation Zrotation
                    JOINT lElbow
                    {
                        OFFSET   0.245000   0.000000   0.000000
                        CHANNELS 3 Xrotation Yrotation Zrotation
                        JOINT lWrist
                        {
                            OFFSET   0.240000   0.000000   0.000000
                            CHANNELS 3 Xrotation Yrotation Zrotation
                            End Site
                            {
                                OFFSET   0.116353  -0.002500   0.000000
                            }
                        }
                    }
                }
            }
        }
    }
    JOINT rHip
    {
        OFFSET  -0.100000  -0.051395   0.000000
        CHANNELS 3 Xrotation Yrotation Zrotation
        JOINT rKnee
        {
            OFFSET   0.000000  -0.410000   0.000000
            CHANNELS 3 Xrotation Yrotation Zrotation
            JOINT rAnkle
            {
                OFFSET   0.000000  -0.390000   0.000000
                CHANNELS 3 Xrotation Yrotation Zrotation
                JOINT rToeJoint
                {
                    OFFSET   0.000000  -0.050000   0.130000
                    CHANNELS 3 Xrotation Yrotation Zrotation
                    End Site
                    {
                        OFFSET  -0.010000   0.002000   0.060000
                    }
                }
            }
        }
    }
    JOINT lHip
    {
        OFFSET   0.100000  -0.051395   0.000000
        CHANNELS 3 Xrotation Yrotation Zrotation
        JOINT lKnee
        {
            OFFSET   0.000000  -0.410000   0.000000
            CHANNELS 3 Xrotation Yrotation Zrotation
            JOINT lAnkle
            {
                OFFSET   0.000000  -0.390000   0.000000
                CHANNELS 3 Xrotation Yrotation Zrotation
                JOINT lToeJoint
                {
                    OFFSET   0.000000  -0.050000   0.130000
                    CHANNELS 3 Xrotation Yrotation Zrotation
                    End Site
                    {
                        OFFSET   0.010000   0.002000   0.060000
                    }
                }
            }
        }
    }
}
MOTION
Frames: 7
Frame Time:   0.008333
 -2.401087   0.866536   5.114708   2.127861  -3.821156   9.496795  20.762133   3.214131   8.585979   6.054440   3.787734   8.621790  -1.195137  -2.933910  -2.163549  -0.413522  10.304274  10.643436  -6.971946   6.658288  21.137615  -0.005025  16.659200   0.005505  -0.223825   0.632444 -13.321471   2.588515   1.288418  -3.252754   0.154412   6.552907 -12.107556  -0.000806 -23.378569  -0.001130   1.901458  -1.699155   9.465561 -35.418297  -2.392069 -12.312970  44.115895  -0.003288  -0.001477 -11.413088  -5.460964   0.195891  -0.532287  -0.001377  -0.000130  -9.294059   1.092136  -3.546141  58.487287  -0.034176   0.006096 -12.174775  -1.339631  -2.665456  -3.604823  -0.012989  -0.000422
 -2.404038   0.867672   5.120794   2.283484  -3.890823   9.527616  20.718153   3.339457   8.462818   6.324534   3.772525   8.547445  -1.186269  -2.913006  -2.074990  -0.371332  10.690259  10.872012  -6.679215   7.149625  21.210493  -0.003839  16.690325   0.004137  -0.222355   0.567563 -13.099663   2.589209   0.986061  -3.717555   0.473553   6.277554 -12.420261  -0.002934 -23.155855  -0.002771   1.916211  -1.796017   9.363897 -35.108463  -2.525289 -12.159638  44.123374  -0.002640  -0.001186 -11.881337  -5.412067  -0.117236  -0.620443  -0.001232  -0.000106 -10.365504   0.834564  -3.190451  59.077126  -0.029990   0.005674 -12.436769  -1.008155  -2.327670  -3.193866  -0.013615   0.000570
 -2.406985   0.869131   5.126830   2.429246  -3.928967   9.569051  20.673419   3.450568   8.308022   6.580210   3.746669   8.467092  -1.175034  -2.894524  -1.979547  -0.337761  11.074111  11.109293  -6.409965   7.630693  21.303837  -0.002835  16.732254   0.002958  -0.204455   0.562790 -12.833753   2.586092   0.675538  -4.177415   0.773250   6.000295 -12.736776  -0.004541 -22.947711  -0.003904   1.931234  -1.867961   9.177602 -34.721867  -2.676218 -12.028770  43.996815  -0.001950  -0.000948 -12.292415  -5.376640  -0.394032  -0.692235  -0.001073  -0.000087 -11.491205   0.585484  -2.863969  59.453711  -0.025548   0.005092 -12.696746  -0.697384  -2.008904  -2.860879  -0.013334   0.001215
 -2.409901   0.870723   5.132903   2.545625  -3.966765   9.618589  20.633286   3.557681   8.122348   6.825215   3.722257   8.368742  -1.162145  -2.877480  -1.890578  -0.309851  11.446370  11.346331  -6.161077   8.090891  21.405436  -0.002039  16.776596   0.002011  -0.179761   0.590649 -12.541365   2.578679   0.372017  -4.616276   1.051263   5.729127 -13.040101  -0.005633 -22.756714  -0.004568   1.947737  -1.949636   8.955919 -34.270557  -2.829718 -11.912244  43.808643  -0.001330  -0.000749 -12.681127  -5.338721  -0.649783  -0.752972  -0.000925  -0.000071 -12.638928   0.357342  -2.566605  59.741625  -0.021550   0.004490 -12.944547  -0.408870  -1.710022  -2.562853  -0.012705   0.001633
 -2.412792   0.872359   5.139040   2.633977  -4.024583   9.664480  20.594482   3.667991   7.912920   7.057569   3.706092   8.252997  -1.148566  -2.861379  -1.810075  -0.286689  11.803334  11.576910  -5.930765   8.527934  21.508001  -0.001428  16.821153   0.001273  -0.151922   0.635980 -12.239216   2.568853   0.085172  -5.031391   1.309450   5.471228 -13.326504  -0.006328 -22.579594  -0.004879   1.964576  -2.036498   8.723849 -33.766929  -2.980870 -11.800982  43.591470  -0.000816  -0.000554 -13.091101  -5.284109  -0.784725  -0.771949  -0.000742  -0.000057 -13.789534   0.146512  -2.287687  59.978744  -0.018124   0.003895 -13.179090  -0.140914  -1.429998  -2.294338  -0.011893   0.001848
 -2.415638   0.873974   5.145273   2.694079  -4.104872   9.707405  20.551771   3.778793   7.683249   7.274979   3.697210   8.120839  -1.134678  -2.846262  -1.737790  -0.266636  12.140995  11.796607  -5.717002   8.939935  21.607376  -0.000976  16.864603   0.000714  -0.122957   0.690244 -11.937917   2.558237  -0.180281  -5.422108   1.549826   5.230242 -13.595371  -0.006722 -22.413888  -0.004928   1.980431  -2.120614   8.490378 -33.221386  -3.128203 -11.688170  43.361545  -0.000394  -0.000364 -13.497884  -5.214866  -0.906592  -0.788414  -0.000595  -0.000046 -14.925839  -0.051285  -2.030602  60.179964  -0.015227   0.003327 -13.400455   0.108091  -1.167678  -2.051760  -0.010985   0.001905
 -2.418425   0.875530   5.151611   2.728723  -4.206968   9.745382  20.501123   3.888481   7.440061   7.474461   3.694388   7.974764  -1.121374  -2.832074  -1.673095  -0.248761  12.457252  12.002132  -5.518178   9.326179  21.700335  -0.000654  16.906073   0.000306  -0.094160   0.747808 -11.645189   2.547896  -0.422456  -5.790115   1.774157   5.007718 -13.847858  -0.006890 -22.257928  -0.004790   1.994399  -2.196599   8.259197 -32.641976  -3.268009 -11.572352  43.131712  -0.000064  -0.000187 -13.908564  -5.134471  -1.017411  -0.802353  -0.000476  -0.000037 -16.038040  -0.238064  -1.794452  60.353092  -0.012790   0.002802 -13.609049   0.339563  -0.922017  -1.832223  -0.010040   0.001851
